<?xml version="1.0" encoding="UTF-8"?>
<svg xmlns="http://www.w3.org/2000/svg" width="555" height="555">
    <path d="M 271,136 270,137 268,137 264,141 264,142 262,144 262,145 261,146 261,147 258,150 258,151 254,155 250,155 249,154 249,153 248,153 239,144 238,144 237,143 236,143 235,142 235,141 233,141 232,140 226,140 225,141 224,141 222,143 221,143 220,144 219,144 219,145 218,146 217,146 217,148 214,151 214,152 213,153 213,157 211,159 212,160 210,162 210,164 208,166 207,166 207,167 206,168 203,168 202,167 202,166 200,166 198,164 196,164 195,163 195,162 194,162 193,161 192,161 191,160 190,161 189,161 188,160 188,159 186,159 186,160 185,161 183,161 182,160 182,159 180,159 179,160 178,160 170,168 170,169 168,171 168,174 169,175 168,176 168,181 169,182 168,183 168,185 169,185 170,186 168,188 167,188 167,189 166,190 165,190 165,191 164,192 160,192 159,191 159,190 157,190 156,191 155,191 154,190 154,189 152,189 151,190 150,190 149,189 150,188 143,188 142,189 140,189 140,190 139,191 138,191 136,193 135,193 134,194 134,196 131,199 131,200 130,201 130,208 131,209 131,213 132,213 133,214 132,215 132,216 133,216 134,217 134,218 133,219 133,222 132,223 132,225 131,226 130,226 129,227 128,227 127,228 116,228 115,227 112,227 111,228 110,228 104,234 104,235 103,236 102,236 102,237 101,238 101,242 102,243 100,245 100,246 102,248 102,249 103,250 103,251 104,252 104,254 108,258 108,260 110,262 109,263 110,264 105,269 103,269 103,270 102,271 101,270 98,270 97,271 95,271 94,272 93,272 90,275 88,275 86,277 86,278 85,279 84,279 84,281 83,282 84,283 83,284 82,284 82,291 83,292 83,293 84,294 84,296 86,296 87,297 87,298 89,300 89,301 92,304 93,304 94,305 94,306 96,308 96,313 92,317 91,317 89,319 88,319 87,320 85,320 84,321 84,322 83,323 82,323 79,326 79,328 78,329 78,342 79,343 79,344 85,350 86,350 88,352 89,352 90,353 91,353 92,354 93,354 94,355 94,356 96,358 96,362 94,364 94,365 86,373 86,375 85,376 84,376 83,377 83,379 82,380 82,387 83,388 83,389 87,393 87,394 88,394 89,395 89,396 90,397 91,397 93,399 94,399 95,400 96,400 97,399 99,399 100,400 104,400 106,402 106,403 107,404 108,404 109,405 109,406 110,407 109,408 109,409 108,410 108,412 105,415 105,416 104,417 104,418 105,419 104,420 103,420 103,422 101,424 101,427 102,428 101,429 101,432 102,433 102,435 104,435 105,436 104,437 110,443 111,443 112,442 113,443 113,444 115,444 116,443 117,443 118,444 130,444 135,449 134,450 133,450 133,451 134,452 133,453 132,453 132,456 133,457 132,458 131,458 131,459 132,459 133,460 129,464 130,465 130,470 131,471 131,472 135,476 135,477 138,480 139,480 141,482 143,482 144,483 147,483 147,482 148,481 149,481 150,482 153,482 154,481 157,481 158,480 161,480 162,479 165,479 166,480 166,481 167,482 167,483 168,483 170,485 169,486 168,486 168,489 169,490 168,491 168,500 172,504 172,505 177,510 178,510 179,511 180,511 181,512 188,512 189,511 190,511 191,510 193,510 193,509 194,508 195,508 197,506 199,506 200,505 201,505 202,504 207,504 212,509 212,513 213,514 213,518 214,519 214,520 218,524 218,525 220,527 221,527 223,529 226,529 227,530 227,531 231,531 233,529 235,529 237,527 238,527 239,526 240,526 243,523 243,522 245,520 246,520 248,518 249,518 250,517 255,517 261,523 261,525 262,526 262,527 263,527 264,528 264,529 269,534 271,534 272,535 282,535 283,534 285,534 289,530 289,529 293,525 293,523 294,522 294,521 295,520 296,520 299,517 304,517 305,518 306,518 309,521 310,521 311,522 311,523 314,526 315,526 317,528 318,528 319,529 322,529 323,530 323,531 327,531 327,530 328,529 331,529 333,527 334,527 335,526 335,525 340,520 340,519 341,518 341,514 342,513 342,512 341,511 342,510 342,509 344,507 344,506 345,505 346,505 347,504 352,504 353,505 354,505 355,506 356,506 357,507 358,507 359,508 360,508 361,509 361,510 363,510 364,511 365,511 366,512 373,512 374,511 375,511 378,508 379,508 382,505 382,504 383,503 383,502 384,501 384,500 385,499 386,499 386,491 385,490 386,489 386,485 385,485 384,484 389,479 391,479 392,480 393,479 395,479 396,480 400,480 401,481 401,482 404,482 405,483 410,483 411,482 413,482 416,479 417,479 418,478 418,477 423,472 423,470 424,469 424,468 425,467 425,465 424,464 424,463 423,462 423,458 422,457 422,455 421,455 420,454 420,453 421,452 421,447 422,446 423,446 425,444 441,444 442,443 443,443 445,441 446,441 449,438 449,436 450,435 451,435 452,434 452,432 453,431 453,424 452,423 452,422 451,421 451,419 450,418 450,417 446,413 446,411 444,409 445,408 445,405 446,404 446,403 447,402 450,402 450,401 451,400 452,401 455,401 454,400 455,399 456,399 457,400 458,400 459,399 461,399 464,396 465,396 466,395 466,394 471,389 471,388 470,387 471,386 472,386 472,380 471,379 471,377 470,376 470,375 469,375 467,373 467,372 459,364 459,363 458,362 458,358 463,353 464,353 465,352 466,352 468,350 469,350 474,345 474,344 475,343 475,342 476,341 476,329 475,328 475,326 472,323 471,323 470,322 470,321 469,320 467,320 466,319 465,319 464,318 463,318 458,313 458,308 459,307 459,306 461,304 462,304 465,301 465,300 467,298 467,297 471,293 471,292 470,291 471,290 472,290 472,284 471,283 471,282 470,281 470,279 468,279 467,278 467,277 464,274 464,273 462,273 461,272 460,272 459,271 457,271 456,272 455,271 455,270 453,270 452,271 451,270 451,269 449,269 445,265 445,261 446,260 446,259 448,257 448,254 449,253 450,253 450,252 451,251 451,250 452,249 452,248 453,247 453,246 454,245 454,244 453,243 453,242 454,241 454,240 453,240 452,239 452,238 451,237 452,236 451,236 450,235 450,234 444,228 443,228 442,227 439,227 438,228 427,228 426,227 425,227 424,226 424,225 423,225 422,224 421,224 420,223 421,222 421,220 420,220 419,219 420,218 420,217 421,216 422,216 422,214 421,213 422,212 423,212 423,208 425,206 425,204 424,203 424,201 423,200 423,199 421,197 421,196 420,196 419,195 419,194 416,191 415,191 414,190 414,189 413,190 412,190 411,189 411,188 404,188 403,189 400,189 400,190 399,191 398,191 397,190 395,190 395,191 394,192 390,192 389,191 389,190 388,190 387,189 387,188 386,188 385,187 386,186 386,183 385,182 386,181 386,176 385,175 386,174 386,171 384,169 384,168 383,168 382,167 382,166 376,160 375,160 374,159 372,159 372,160 371,161 369,161 368,160 368,159 366,159 366,160 365,161 364,161 363,160 362,160 360,162 359,162 359,163 358,164 356,164 354,166 352,166 352,167 351,168 350,168 349,169 344,164 344,163 342,161 342,160 343,159 341,157 341,153 340,152 340,151 339,150 339,148 337,148 336,147 336,146 333,143 332,143 330,141 329,141 328,140 322,140 321,141 319,141 319,142 318,143 317,143 316,144 315,144 307,152 306,152 303,155 302,155 301,154 299,154 295,150 295,149 293,147 293,146 290,143 290,141 287,138 286,138 285,137 284,137 283,136" fill="none" stroke="black" stroke-width="1" />
</svg>