<?xml version="1.0" encoding="utf-8" ?>
<svg baseProfile="tiny" height="397px" version="1.2" width="397px" xmlns="http://www.w3.org/2000/svg" xmlns:ev="http://www.w3.org/2001/xml-events" xmlns:xlink="http://www.w3.org/1999/xlink"><defs /><path d="M 192.00376892089844,10.009085655212402 186.34616088867188,11.692183494567871 180.94911193847656,14.004281044006348 175.0192413330078,15.03007984161377 169.06455993652344,16.002824783325195 163.12060546875,15.012287139892578 156.77015686035156,14.998120307922363 150.83560180664062,16.0125675201416 145.22203063964844,17.801958084106445 139.86233520507812,20.204267501831055 135.05955505371094,23.95106315612793 129.98147583007812,27.033231735229492 124.59602355957031,29.373363494873047 118.64030456542969,30.33672332763672 112.67996978759766,31.28894805908203 107.05397033691406,33.048336029052734 101.9100570678711,35.971580505371094 97.15923309326172,39.84230041503906 92.9984130859375,44.473323822021484 89.56533813476562,49.40620803833008 84.76457214355469,53.1174430847168 79.58085632324219,55.944427490234375 74.07682037353516,57.99824523925781 68.97762298583984,61.0294189453125 64.18933868408203,64.8084487915039 60.288780212402344,69.54998779296875 57.992889404296875,74.95377349853516 56.060691833496094,80.50818634033203 53.003597259521484,85.5962142944336 48.7077751159668,90.0033187866211 43.677452087402344,93.19955444335938 39.21813201904297,97.7793197631836 35.43129348754883,102.56543731689453 32.96977233886719,107.90059661865234 30.9454402923584,113.41685485839844 29.998558044433594,119.37940216064453 28.94278335571289,125.29684448242188 26.283016204833984,130.54989624023438 23.002737045288086,135.54591369628906 19.993328094482422,140.6541290283203 17.150197982788086,145.83123779296875 16.048030853271484,151.72946166992188 15.000965118408203,157.65045166015625 14.973527908325195,164.01583862304688 16.000768661499023,169.94517517089844 14.950963973999023,175.8656463623047 13.40221881866455,181.5789031982422 11.77964973449707,187.26156616210938 10.012794494628906,192.8844757080078 9.999842643737793,199.23399353027344 10.410178184509277,205.41879272460938 12.069255828857422,211.08633422851562 13.939202308654785,216.66653442382812 16.023000717163086,222.15814208984375 15.996329307556152,228.52081298828125 14.996284484863281,234.46139526367188 14.988085746765137,240.82269287109375 15.959823608398438,246.77493286132812 18.19349479675293,252.20448303222656 21.008602142333984,257.3931884765625 24.381053924560547,262.3510437011719 27.98725128173828,267.2120666503906 30.05200958251953,272.7115478515625 31.055145263671875,278.65081787109375 32.057044982910156,284.590576171875 33.98358154296875,290.1473388671875 37.00653839111328,295.2499084472656 40.967979431152344,299.9592590332031 45.7453727722168,303.76605224609375 50.53190612792969,307.5567932128906 54.41874694824219,312.28509521484375 56.72218704223633,317.6856689453125 58.9755744934082,323.1070556640625 62.005313873291016,328.2068786621094 65.93314361572266,332.9380187988281 71.00167083740234,336.0420227050781 76.3897476196289,338.37579345703125 81.7497787475586,340.77728271484375 86.83136749267578,343.8494567871094 91.00163269042969,348.4669189453125 94.31128692626953,353.45086669921875 98.90325164794922,357.903564453125 103.95916748046875,361.03936767578125 109.36712646484375,363.32513427734375 115.01869201660156,365.0228271484375 120.95817565917969,366.025390625 126.91171264648438,366.9940185546875 132.02427673339844,369.9929504394531 136.79823303222656,373.809326171875 141.886962890625,376.8658142089844 147.37841796875,378.9499816894531 153.32029724121094,379.94677734375 159.23983764648438,381.0013427734375 165.1743927001953,379.988037109375 171.5357208251953,379.9962158203125 177.501220703125,380.93585205078125 183.00108337402344,382.999755859375 188.50315856933594,385.0583190917969 194.46925354003906,385.9966735839844 200.8179473876953,385.9886779785156 206.7664031982422,385.0078125 212.2660675048828,382.94342041015625 217.7920684814453,380.942626953125 223.75669860839844,380.00079345703125 230.10601806640625,380.0123596191406 236.050048828125,381.0027160644531 242.0055694580078,380.0322265625 247.95205688476562,379.04656982421875 253.46006774902344,377.0023193359375 258.572509765625,374.00311279296875 263.4818420410156,370.5135498046875 268.56182861328125,367.4359436035156 274.3215637207031,365.9994201660156 280.2561950683594,364.9851989746094 286.1407470703125,363.8499755859375 291.5106506347656,361.4722900390625 296.6323547363281,358.4949645996094 301.11859130859375,353.9242858886719 304.9123840332031,349.1407775878906 308.66131591796875,344.3392333984375 313.6312255859375,340.99578857421875 319.1155090332031,338.8943176269531 324.2760009765625,336.0110778808594 329.38165283203125,332.9950866699219 333.2355651855469,328.6009826660156 336.42291259765625,323.5674133300781 339.0419616699219,318.2975158691406 341.1748962402344,312.82623291015625 344.9570617675781,308.0362548828125 349.77294921875,304.31610107421875 354.5246276855469,300.4468994140625 358.983642578125,295.95538330078125 361.9804992675781,290.84197998046875 364.0652770996094,285.3507385253906 365.0046691894531,279.3851013183594 365.998779296875,273.4421081542969 367.97283935546875,267.9050598144531 371.1820068359375,262.8795471191406 374.9281005859375,258.07647705078125 377.2901306152344,252.7001190185547 379.6847839355469,247.33724975585938 381.05975341796875,241.55201721191406 381.0040588378906,235.1708526611328 380.01129150390625,229.2273406982422 379.9623107910156,222.86158752441406 381.0550537109375,216.95947265625 383.3973083496094,211.57489013671875 385.0002746582031,205.8841094970703 386.00335693359375,199.94485473632812 385.9927062988281,193.5917205810547 384.7647705078125,187.74559020996094 383.0263366699219,182.11090087890625 381.05865478515625,176.57118225097656 380.0007629394531,170.654541015625 379.9524230957031,164.2804718017578 380.9982604980469,158.35958862304688 379.9452819824219,152.44174194335938 379.06134033203125,146.453125 376.2496643066406,141.26300048828125 373.10400390625,136.21121215820312 369.3003234863281,131.4320068359375 366.99151611328125,126.03358459472656 366.00189208984375,120.08873748779297 365.0191650390625,114.14103698730469 362.9409484863281,108.64710235595703 360.983642578125,103.10308074951172 357.2646789550781,98.28936767578125 352.70196533203125,93.996337890625 347.6724853515625,90.79671478271484 343.222412109375,86.21247863769531 340.1256103515625,81.14054107666016 338.00457763671875,75.6643295288086 335.37567138671875,70.39850616455078 332.38775634765625,65.2804946899414 327.4776916503906,61.64384460449219 322.44744873046875,58.445457458496094 317.07391357421875,56.07663345336914 311.7379150390625,53.61720275878906 306.9246826171875,49.91429138183594 303.1212463378906,45.1332893371582 299.3458557128906,40.34296798706055 294.78326416015625,36.01072311401367 289.4765930175781,33.480369567871094 283.80108642578125,31.84051513671875 277.8497009277344,30.866670608520508 271.8945007324219,29.90203285217285 266.4745178222656,27.64531135559082 261.63165283203125,23.995271682739258 256.652587890625,20.674043655395508 251.40390014648438,18.00376319885254 245.89076232910156,15.971919059753418 239.93997192382812,14.996631622314453 233.58555603027344,15.004172325134277 227.6396942138672,15.991499900817871 221.4950714111328,15.501362800598145 215.7457733154297,14.039599418640137 210.25213623046875,11.960688591003418 204.5036163330078,10.497102737426758 198.3546905517578,9.999709129333496 192.00376892089844,10.009085655212402 Z" fill="red" stroke="none" stroke-width="1" /><path d="M 192.00376892089844,10.009085655212402 186.34616088867188,11.692183494567871 180.94911193847656,14.004281044006348 175.0192413330078,15.03007984161377 169.06455993652344,16.002824783325195 163.12060546875,15.012287139892578 156.77015686035156,14.998120307922363 150.83560180664062,16.0125675201416 145.22203063964844,17.801958084106445 139.86233520507812,20.204267501831055 135.05955505371094,23.95106315612793 129.98147583007812,27.033231735229492 124.59602355957031,29.373363494873047 118.64030456542969,30.33672332763672 112.67996978759766,31.28894805908203 107.05397033691406,33.048336029052734 101.9100570678711,35.971580505371094 97.15923309326172,39.84230041503906 92.9984130859375,44.473323822021484 89.56533813476562,49.40620803833008 84.76457214355469,53.1174430847168 79.58085632324219,55.944427490234375 74.07682037353516,57.99824523925781 68.97762298583984,61.0294189453125 64.18933868408203,64.8084487915039 60.288780212402344,69.54998779296875 57.992889404296875,74.95377349853516 56.060691833496094,80.50818634033203 53.003597259521484,85.5962142944336 48.7077751159668,90.0033187866211 43.677452087402344,93.19955444335938 39.21813201904297,97.7793197631836 35.43129348754883,102.56543731689453 32.96977233886719,107.90059661865234 30.9454402923584,113.41685485839844 29.998558044433594,119.37940216064453 28.94278335571289,125.29684448242188 26.283016204833984,130.54989624023438 23.002737045288086,135.54591369628906 19.993328094482422,140.6541290283203 17.150197982788086,145.83123779296875 16.048030853271484,151.72946166992188 15.000965118408203,157.65045166015625 14.973527908325195,164.01583862304688 16.000768661499023,169.94517517089844 14.950963973999023,175.8656463623047 13.40221881866455,181.5789031982422 11.77964973449707,187.26156616210938 10.012794494628906,192.8844757080078 9.999842643737793,199.23399353027344 10.410178184509277,205.41879272460938 12.069255828857422,211.08633422851562 13.939202308654785,216.66653442382812 16.023000717163086,222.15814208984375 15.996329307556152,228.52081298828125 14.996284484863281,234.46139526367188 14.988085746765137,240.82269287109375 15.959823608398438,246.77493286132812 18.19349479675293,252.20448303222656 21.008602142333984,257.3931884765625 24.381053924560547,262.3510437011719 27.98725128173828,267.2120666503906 30.05200958251953,272.7115478515625 31.055145263671875,278.65081787109375 32.057044982910156,284.590576171875 33.98358154296875,290.1473388671875 37.00653839111328,295.2499084472656 40.967979431152344,299.9592590332031 45.7453727722168,303.76605224609375 50.53190612792969,307.5567932128906 54.41874694824219,312.28509521484375 56.72218704223633,317.6856689453125 58.9755744934082,323.1070556640625 62.005313873291016,328.2068786621094 65.93314361572266,332.9380187988281 71.00167083740234,336.0420227050781 76.3897476196289,338.37579345703125 81.7497787475586,340.77728271484375 86.83136749267578,343.8494567871094 91.00163269042969,348.4669189453125 94.31128692626953,353.45086669921875 98.90325164794922,357.903564453125 103.95916748046875,361.03936767578125 109.36712646484375,363.32513427734375 115.01869201660156,365.0228271484375 120.95817565917969,366.025390625 126.91171264648438,366.9940185546875 132.02427673339844,369.9929504394531 136.79823303222656,373.809326171875 141.886962890625,376.8658142089844 147.37841796875,378.9499816894531 153.32029724121094,379.94677734375 159.23983764648438,381.0013427734375 165.1743927001953,379.988037109375 171.5357208251953,379.9962158203125 177.501220703125,380.93585205078125 183.00108337402344,382.999755859375 188.50315856933594,385.0583190917969 194.46925354003906,385.9966735839844 200.8179473876953,385.9886779785156 206.7664031982422,385.0078125 212.2660675048828,382.94342041015625 217.7920684814453,380.942626953125 223.75669860839844,380.00079345703125 230.10601806640625,380.0123596191406 236.050048828125,381.0027160644531 242.0055694580078,380.0322265625 247.95205688476562,379.04656982421875 253.46006774902344,377.0023193359375 258.572509765625,374.00311279296875 263.4818420410156,370.5135498046875 268.56182861328125,367.4359436035156 274.3215637207031,365.9994201660156 280.2561950683594,364.9851989746094 286.1407470703125,363.8499755859375 291.5106506347656,361.4722900390625 296.6323547363281,358.4949645996094 301.11859130859375,353.9242858886719 304.9123840332031,349.1407775878906 308.66131591796875,344.3392333984375 313.6312255859375,340.99578857421875 319.1155090332031,338.8943176269531 324.2760009765625,336.0110778808594 329.38165283203125,332.9950866699219 333.2355651855469,328.6009826660156 336.42291259765625,323.5674133300781 339.0419616699219,318.2975158691406 341.1748962402344,312.82623291015625 344.9570617675781,308.0362548828125 349.77294921875,304.31610107421875 354.5246276855469,300.4468994140625 358.983642578125,295.95538330078125 361.9804992675781,290.84197998046875 364.0652770996094,285.3507385253906 365.0046691894531,279.3851013183594 365.998779296875,273.4421081542969 367.97283935546875,267.9050598144531 371.1820068359375,262.8795471191406 374.9281005859375,258.07647705078125 377.2901306152344,252.7001190185547 379.6847839355469,247.33724975585938 381.05975341796875,241.55201721191406 381.0040588378906,235.1708526611328 380.01129150390625,229.2273406982422 379.9623107910156,222.86158752441406 381.0550537109375,216.95947265625 383.3973083496094,211.57489013671875 385.0002746582031,205.8841094970703 386.00335693359375,199.94485473632812 385.9927062988281,193.5917205810547 384.7647705078125,187.74559020996094 383.0263366699219,182.11090087890625 381.05865478515625,176.57118225097656 380.0007629394531,170.654541015625 379.9524230957031,164.2804718017578 380.9982604980469,158.35958862304688 379.9452819824219,152.44174194335938 379.06134033203125,146.453125 376.2496643066406,141.26300048828125 373.10400390625,136.21121215820312 369.3003234863281,131.4320068359375 366.99151611328125,126.03358459472656 366.00189208984375,120.08873748779297 365.0191650390625,114.14103698730469 362.9409484863281,108.64710235595703 360.983642578125,103.10308074951172 357.2646789550781,98.28936767578125 352.70196533203125,93.996337890625 347.6724853515625,90.79671478271484 343.222412109375,86.21247863769531 340.1256103515625,81.14054107666016 338.00457763671875,75.6643295288086 335.37567138671875,70.39850616455078 332.38775634765625,65.2804946899414 327.4776916503906,61.64384460449219 322.44744873046875,58.445457458496094 317.07391357421875,56.07663345336914 311.7379150390625,53.61720275878906 306.9246826171875,49.91429138183594 303.1212463378906,45.1332893371582 299.3458557128906,40.34296798706055 294.78326416015625,36.01072311401367 289.4765930175781,33.480369567871094 283.80108642578125,31.84051513671875 277.8497009277344,30.866670608520508 271.8945007324219,29.90203285217285 266.4745178222656,27.64531135559082 261.63165283203125,23.995271682739258 256.652587890625,20.674043655395508 251.40390014648438,18.00376319885254 245.89076232910156,15.971919059753418 239.93997192382812,14.996631622314453 233.58555603027344,15.004172325134277 227.6396942138672,15.991499900817871 221.4950714111328,15.501362800598145 215.7457733154297,14.039599418640137 210.25213623046875,11.960688591003418 204.5036163330078,10.497102737426758 198.3546905517578,9.999709129333496 192.00376892089844,10.009085655212402 Z" fill="none" stroke="black" stroke-width="2" /></svg>