<?xml version="1.0" encoding="utf-8" ?>
<svg baseProfile="tiny" height="377px" version="1.2" width="377px" xmlns="http://www.w3.org/2000/svg" xmlns:ev="http://www.w3.org/2001/xml-events" xmlns:xlink="http://www.w3.org/1999/xlink"><defs /><path d="M 182,0 181,1 177,1 176,2 175,2 174,3 172,3 171,4 169,4 168,5 165,5 164,6 156,6 155,5 143,5 142,6 138,6 137,7 136,7 135,8 133,8 132,9 131,9 129,11 128,11 125,14 124,14 122,16 121,16 119,18 118,18 117,19 115,19 114,20 109,20 108,21 103,21 102,22 99,22 98,23 97,23 96,24 95,24 94,25 93,25 92,26 91,26 83,34 83,35 81,37 81,38 76,43 75,43 73,45 72,45 71,46 69,46 68,47 67,47 66,48 64,48 63,49 62,49 61,50 60,50 58,52 57,52 52,57 52,58 50,60 50,61 49,62 49,63 48,64 48,66 47,67 47,68 46,69 46,71 45,72 45,73 43,75 43,76 39,80 38,80 35,83 34,83 26,91 26,92 25,93 25,94 24,95 24,96 23,97 23,98 22,99 22,102 21,103 21,107 20,108 20,114 19,115 19,117 18,118 18,119 16,121 16,122 13,125 13,126 11,128 11,129 10,130 10,131 9,132 9,133 8,134 8,135 7,136 7,138 6,139 6,142 5,143 5,155 6,156 6,164 5,165 5,168 4,169 4,171 3,172 3,174 2,175 2,177 1,178 1,180 0,181 0,195 1,196 1,198 2,199 2,201 3,202 3,204 4,205 4,207 5,208 5,211 6,212 6,220 5,221 5,232 6,233 6,237 7,238 7,240 8,241 8,242 9,243 9,244 10,245 10,246 11,247 11,248 13,250 13,251 17,255 17,256 18,257 18,258 19,259 19,261 20,262 20,267 21,268 21,273 22,274 22,276 23,277 23,279 24,280 24,281 25,282 25,283 27,285 27,286 33,292 34,292 38,296 39,296 43,300 43,301 45,303 45,304 46,305 46,307 47,308 47,309 48,310 48,312 49,313 49,314 50,315 50,316 52,318 52,319 57,324 58,324 60,326 61,326 62,327 64,327 65,328 66,328 67,329 68,329 69,330 71,330 72,331 73,331 74,332 75,332 81,338 81,339 84,342 84,343 90,349 91,349 93,351 94,351 95,352 96,352 97,353 99,353 100,354 103,354 104,355 109,355 110,356 114,356 115,357 117,357 118,358 119,358 120,359 121,359 124,362 125,362 128,365 129,365 130,366 131,366 132,367 133,367 134,368 135,368 136,369 138,369 139,370 144,370 145,371 153,371 154,370 165,370 166,371 168,371 169,372 171,372 172,373 174,373 175,374 177,374 178,375 182,375 183,376 193,376 194,375 198,375 199,374 201,374 202,373 204,373 205,372 206,372 207,371 210,371 211,370 222,370 223,371 231,371 232,370 237,370 238,369 240,369 241,368 242,368 243,367 244,367 245,366 246,366 248,364 249,364 251,362 252,362 255,359 256,359 257,358 258,358 259,357 261,357 262,356 266,356 267,355 272,355 273,354 276,354 277,353 278,353 279,352 281,352 282,351 283,351 285,349 286,349 292,343 292,342 295,339 295,338 301,332 302,332 303,331 304,331 305,330 306,330 307,329 309,329 310,328 311,328 312,327 313,327 314,326 315,326 316,325 317,325 319,323 320,323 323,320 323,319 325,317 325,316 326,315 326,314 327,313 327,312 328,311 328,310 329,309 329,307 330,306 330,305 331,304 331,303 332,302 332,301 338,295 339,295 342,292 343,292 349,286 349,285 351,283 351,282 352,281 352,280 353,279 353,277 354,276 354,273 355,272 355,267 356,266 356,262 357,261 357,259 358,258 358,257 359,256 359,255 362,252 362,251 365,248 365,247 366,246 366,245 367,244 367,243 368,242 368,241 369,240 369,238 370,237 370,233 371,232 371,222 370,221 370,212 371,211 371,207 372,206 372,204 373,203 373,202 374,201 374,199 375,198 375,194 376,193 376,182 375,181 375,178 374,177 374,175 373,174 373,172 372,171 372,169 371,168 371,166 370,165 370,154 371,153 371,144 370,143 370,139 369,138 369,136 368,135 368,134 367,133 367,132 366,131 366,130 365,129 365,128 363,126 363,125 359,121 359,120 358,119 358,118 357,117 357,115 356,114 356,110 355,109 355,104 354,103 354,100 353,99 353,97 352,96 352,95 351,94 351,93 349,91 349,90 343,84 342,84 339,81 338,81 332,75 332,74 331,73 331,72 330,71 330,69 329,68 329,67 328,66 328,65 327,64 327,63 326,62 326,61 325,60 325,59 323,57 323,56 319,52 318,52 316,50 315,50 314,49 313,49 312,48 310,48 309,47 308,47 307,46 305,46 304,45 303,45 301,43 300,43 295,38 295,37 292,34 292,33 285,26 284,26 283,25 282,25 281,24 280,24 279,23 277,23 276,22 274,22 273,21 268,21 267,20 262,20 261,19 259,19 258,18 257,18 255,16 254,16 252,14 251,14 248,11 247,11 246,10 245,10 244,9 243,9 242,8 241,8 240,7 238,7 237,6 234,6 233,5 221,5 220,6 212,6 211,5 208,5 207,4 205,4 204,3 202,3 201,2 199,2 198,1 195,1 194,0 182,0" fill="red" stroke="none" stroke-width="1" /><path d="M 182,0 181,1 177,1 176,2 175,2 174,3 172,3 171,4 169,4 168,5 165,5 164,6 156,6 155,5 143,5 142,6 138,6 137,7 136,7 135,8 133,8 132,9 131,9 129,11 128,11 125,14 124,14 122,16 121,16 119,18 118,18 117,19 115,19 114,20 109,20 108,21 103,21 102,22 99,22 98,23 97,23 96,24 95,24 94,25 93,25 92,26 91,26 83,34 83,35 81,37 81,38 76,43 75,43 73,45 72,45 71,46 69,46 68,47 67,47 66,48 64,48 63,49 62,49 61,50 60,50 58,52 57,52 52,57 52,58 50,60 50,61 49,62 49,63 48,64 48,66 47,67 47,68 46,69 46,71 45,72 45,73 43,75 43,76 39,80 38,80 35,83 34,83 26,91 26,92 25,93 25,94 24,95 24,96 23,97 23,98 22,99 22,102 21,103 21,107 20,108 20,114 19,115 19,117 18,118 18,119 16,121 16,122 13,125 13,126 11,128 11,129 10,130 10,131 9,132 9,133 8,134 8,135 7,136 7,138 6,139 6,142 5,143 5,155 6,156 6,164 5,165 5,168 4,169 4,171 3,172 3,174 2,175 2,177 1,178 1,180 0,181 0,195 1,196 1,198 2,199 2,201 3,202 3,204 4,205 4,207 5,208 5,211 6,212 6,220 5,221 5,232 6,233 6,237 7,238 7,240 8,241 8,242 9,243 9,244 10,245 10,246 11,247 11,248 13,250 13,251 17,255 17,256 18,257 18,258 19,259 19,261 20,262 20,267 21,268 21,273 22,274 22,276 23,277 23,279 24,280 24,281 25,282 25,283 27,285 27,286 33,292 34,292 38,296 39,296 43,300 43,301 45,303 45,304 46,305 46,307 47,308 47,309 48,310 48,312 49,313 49,314 50,315 50,316 52,318 52,319 57,324 58,324 60,326 61,326 62,327 64,327 65,328 66,328 67,329 68,329 69,330 71,330 72,331 73,331 74,332 75,332 81,338 81,339 84,342 84,343 90,349 91,349 93,351 94,351 95,352 96,352 97,353 99,353 100,354 103,354 104,355 109,355 110,356 114,356 115,357 117,357 118,358 119,358 120,359 121,359 124,362 125,362 128,365 129,365 130,366 131,366 132,367 133,367 134,368 135,368 136,369 138,369 139,370 144,370 145,371 153,371 154,370 165,370 166,371 168,371 169,372 171,372 172,373 174,373 175,374 177,374 178,375 182,375 183,376 193,376 194,375 198,375 199,374 201,374 202,373 204,373 205,372 206,372 207,371 210,371 211,370 222,370 223,371 231,371 232,370 237,370 238,369 240,369 241,368 242,368 243,367 244,367 245,366 246,366 248,364 249,364 251,362 252,362 255,359 256,359 257,358 258,358 259,357 261,357 262,356 266,356 267,355 272,355 273,354 276,354 277,353 278,353 279,352 281,352 282,351 283,351 285,349 286,349 292,343 292,342 295,339 295,338 301,332 302,332 303,331 304,331 305,330 306,330 307,329 309,329 310,328 311,328 312,327 313,327 314,326 315,326 316,325 317,325 319,323 320,323 323,320 323,319 325,317 325,316 326,315 326,314 327,313 327,312 328,311 328,310 329,309 329,307 330,306 330,305 331,304 331,303 332,302 332,301 338,295 339,295 342,292 343,292 349,286 349,285 351,283 351,282 352,281 352,280 353,279 353,277 354,276 354,273 355,272 355,267 356,266 356,262 357,261 357,259 358,258 358,257 359,256 359,255 362,252 362,251 365,248 365,247 366,246 366,245 367,244 367,243 368,242 368,241 369,240 369,238 370,237 370,233 371,232 371,222 370,221 370,212 371,211 371,207 372,206 372,204 373,203 373,202 374,201 374,199 375,198 375,194 376,193 376,182 375,181 375,178 374,177 374,175 373,174 373,172 372,171 372,169 371,168 371,166 370,165 370,154 371,153 371,144 370,143 370,139 369,138 369,136 368,135 368,134 367,133 367,132 366,131 366,130 365,129 365,128 363,126 363,125 359,121 359,120 358,119 358,118 357,117 357,115 356,114 356,110 355,109 355,104 354,103 354,100 353,99 353,97 352,96 352,95 351,94 351,93 349,91 349,90 343,84 342,84 339,81 338,81 332,75 332,74 331,73 331,72 330,71 330,69 329,68 329,67 328,66 328,65 327,64 327,63 326,62 326,61 325,60 325,59 323,57 323,56 319,52 318,52 316,50 315,50 314,49 313,49 312,48 310,48 309,47 308,47 307,46 305,46 304,45 303,45 301,43 300,43 295,38 295,37 292,34 292,33 285,26 284,26 283,25 282,25 281,24 280,24 279,23 277,23 276,22 274,22 273,21 268,21 267,20 262,20 261,19 259,19 258,18 257,18 255,16 254,16 252,14 251,14 248,11 247,11 246,10 245,10 244,9 243,9 242,8 241,8 240,7 238,7 237,6 234,6 233,5 221,5 220,6 212,6 211,5 208,5 207,4 205,4 204,3 202,3 201,2 199,2 198,1 195,1 194,0 182,0" fill="none" stroke="black" stroke-width="2" /></svg>